<?xml version="1.0" encoding="UTF-8" standalone="no"?>
<!-- Created with Inkscape (http://www.inkscape.org/) -->

<svg
   width="630.28546mm"
   height="305.00955mm"
   viewBox="0 0 630.28546 305.00956"
   version="1.1"
   id="svg5"
   xml:space="preserve"
   inkscape:version="1.2.1 (9c6d41e410, 2022-07-14)"
   sodipodi:docname="Shahada 2.svg"
   xmlns:inkscape="http://www.inkscape.org/namespaces/inkscape"
   xmlns:sodipodi="http://sodipodi.sourceforge.net/DTD/sodipodi-0.dtd"
   xmlns="http://www.w3.org/2000/svg"
   xmlns:svg="http://www.w3.org/2000/svg"><sodipodi:namedview
     id="namedview7"
     pagecolor="#ffffff"
     bordercolor="#000000"
     borderopacity="0.25"
     inkscape:showpageshadow="2"
     inkscape:pageopacity="0.0"
     inkscape:pagecheckerboard="0"
     inkscape:deskcolor="#d1d1d1"
     inkscape:document-units="mm"
     showgrid="false"
     inkscape:zoom="0.26110523"
     inkscape:cx="855.97672"
     inkscape:cy="256.60152"
     inkscape:window-width="1920"
     inkscape:window-height="1009"
     inkscape:window-x="-8"
     inkscape:window-y="-8"
     inkscape:window-maximized="1"
     inkscape:current-layer="layer1" /><defs
     id="defs2" /><g
     inkscape:label="Layer 1"
     inkscape:groupmode="layer"
     id="layer1"
     transform="translate(268.89493,156.7827)"><rect
       style="fill:#000000;stroke-width:1.71138"
       id="rect1374"
       width="630.28546"
       height="305.00955"
       x="-268.89493"
       y="-156.7827" /><path
       id="path359"
       style="fill:#ffffff;stroke-width:0.264583"
       d="m -103.25963,82.542837 c -2.14075,-0.34597 -1.32766,-0.85258 4.7625,-2.96732 22.98599,-7.98168 39.21526,-15.8818 59.334937,-28.88321 1.57154,-1.01553 2.49156,-1.78603 2.56679,-2.14962 0.0645,-0.3117 0.30912,-1.57875 0.54361,-2.81568 0.8648,-4.56164 3.603142,-12.75421 4.516404,-13.51215 0.916369,-0.76051 0.809035,0.35873 -0.547282,5.70694 -1.533272,6.04598 -2.060042,9.36071 -1.42791,8.98527 1.495183,-0.88802 8.213702,-5.82967 11.478028,-8.4424 4.095721,-3.27816 11.378086,-10.16344 11.647546,-11.01244 0.0939,-0.29569 -0.75641,-2.44743 -2.20847,-5.58895 -3.716564,-8.04073 -5.737179,-13.528562 -6.654368,-18.072732 -0.2559,-1.26783 -0.536742,-1.81095 -1.394706,-2.69719 l -1.074285,-1.1097001 1.137322,-5.3725899 c 0.625528,-2.95493 1.223433,-5.470038 1.328679,-5.589138 0.105243,-0.11909 1.72507,1.767818 3.599609,4.193138 1.874539,2.42531 4.158979,5.38026 5.076529,6.5665299 0.9175448,1.18628 1.9094548,2.6175201 2.2042448,3.1805401 0.7942,1.51685 0.38161,1.706 -1.8870348,0.86509 -1.03591,-0.38398 -1.93284,-0.69814 -1.99318,-0.69814 -0.20189,0 1.41892,4.33453 2.6712548,7.143752 1.66603,3.73719 2.43699,6.04904 2.90121,8.69976 0.48887,2.79141 0.4913,6.77847 0.006,9.07036 -0.62,2.92526 -2.22444,7.39164 -3.31112,9.21738 -2.3802348,3.99907 -9.4255858,10.62104 -18.6633468,17.54182 -1.74625,1.30826 -3.279394,2.47174 -3.406986,2.58551 -0.335968,0.29957 0.705987,1.85749 2.104445,3.14654 0.664123,0.61216 2.00279,1.48981 2.974811,1.95031 1.71904,0.81441 1.864879,0.83691 5.339189,0.8239 3.188443,-0.0119 3.813294,-0.0934 5.820833,-0.75915 5.2814,-1.75135 11.6069548,-5.63246 18.3885348,-11.28245 7.00955,-5.83992 16.0048552,-15.31505 20.7343752,-21.84039 l 1.44868,-1.99876 -0.61619,-2.82273 c -2.55703,-11.71345 -7.05581,-25.1170821 -12.93603,-38.54147 l -1.8543152,-4.23334 -2.59451,-0.16661 c -4.32377,-0.27765 -7.41508948,-1.7118 -10.19158,-4.728187 -2.71981,-2.95479 -4.56711,-7.53423 -5.227,-12.95764 -0.59878,-4.92115 -0.23013,-9.50832 1.57317,-19.57516 1.39354,-7.77934 1.38288,-8.37069 -0.11875,-6.5861 -2.41603,2.87128 -4.1738148,8.45325 -6.9891948,22.19458 -0.88027,4.29642 -1.908277,8.87975 -2.284461,10.18519 -0.888717,3.08401 -2.306487,5.9388 -3.623205,7.29558 -2.315847,2.386327 -6.101421,3.191857 -8.668951,1.844667 -1.689878,-0.88668 -4.200231,-3.545997 -5.388649,-5.708407 -1.26388,-2.29973 -2.63194,-6.42569 -3.11437,-9.39271 -0.54881,-3.37527 -0.47622,-13.57586 0.12427,-17.4625 0.95647,-6.19065 2.33002,-10.84791 3.19934,-10.84791 0.512314,0 0.515667,-0.14984 -0.10429,4.66293 -1.20243,9.33455 -1.32561,15.96736 -0.38554,20.75956 0.45678,2.3285 1.93092,5.80916 3.125887,7.38066 1.533633,2.01688 4.127209,3.04084 6.074399,2.3982 1.38089,-0.45573 3.047871,-2.27471 4.038262,-4.40645 1.122873,-2.41692 2.107784,-5.89889 3.808616,-13.46469 3.162232,-14.06655 4.713182,-18.69544 8.2695668,-24.680981 1.71818,-2.89177 4.08841,-5.45299 5.33616,-5.76615 1.01985,-0.25597 1.83769,0.2119 2.41981,1.38434 0.42391052,0.85379 0.49848052,1.5476 0.46478052,4.32425 -0.0409,3.373761 -0.37729052,6.052811 -2.10929052,16.801041 -1.86487,11.57279 -1.18565,17.68783 2.38914052,21.50957 0.66152,0.70722 1.78148948,1.60084 2.48881948,1.98581 1.41597,0.77067 4.14378,1.49774 5.64203,1.50383 l 0.96223,0.004 0.31794,-1.78594 c 0.47418,-2.66355 0.52178,-2.78835 0.93315,-2.44695 0.25803,0.21416 2.4216652,3.39984 2.6429052,3.89137 0.0137,0.0305 0.73422,-0.12961 1.60115,-0.35568 7.66722,-1.99943 12.55195,-8.60368 13.47712,-18.22134 0.33814,-3.51511 -0.76414,-13.53987 -2.10911,-19.18146 -0.36428,-1.52797 -1.27998,-4.637621 -2.03491,-6.910341 l -1.3726,-4.13222 1.80535,-4.99591 c 0.99294,-2.74775 1.91292,-5.11397 2.04441,-5.25828 0.37314,-0.40953 0.59017,0.10239 2.57895,6.08321 3.07381,9.24375 3.92384,12.949911 5.58287,24.341661 1.45626,9.99935 2.54342,14.52004 4.358758,18.12482 2.76361,5.48781 8.64851,8.4487 14.510454,7.30071 2.51333,-0.4922 4.425464,-1.34987 5.928185,-2.65901 0.91675,-0.79866 1.12448,-1.14843 1.12448,-1.8934 0,-1.24014 -0.74588,-3.3629 -2.805351,-7.98397 -4.756534,-10.6728 -7.004564,-17.73528 -8.271504,-25.986031 -0.40738,-2.65295 -0.722884,-3.77054 -1.594674,-5.64874 -0.59775,-1.28779 -1.08866,-2.53795 -1.09091,-2.77812 -0.008,-0.86658 3.580864,-10.88505 3.899904,-10.88638 0.17817,-7.4e-4 0.52225,0.38561 0.76464,0.85856 0.24238,0.47294 2.08115,3.48718 4.08615,6.6983 4.331025,6.93642 5.540905,9.08942 5.540905,9.86013 0,0.7647 -0.29492,0.72688 -2.77541,-0.35594 -1.162675,-0.50754 -2.198055,-0.92281 -2.300845,-0.92281 -0.26643,0 0.20684,1.54423 3.909225,12.755411 3.44724,10.43857 4.43858,14.15989 4.8628,18.254 0.67408,6.50559 -1.59096,14.0132 -5.50235,18.23786 -3.661615,3.954887 -8.935355,5.123367 -14.595049,3.23377 -2.66671,-0.89033 -4.59796,-2.11063 -6.50965,-4.11327 -3.255268,-3.41013 -5.345778,-7.54226 -6.466268,-12.78131 -0.43119,-2.01609 -0.6714,-2.28581 -0.90122,-1.01195 -0.81696,4.52842 -4.0423,11.73467 -6.77178,15.1299 -1.05018,1.30634 -3.56658,3.463477 -4.93107,4.227087 -0.41228,0.23072 -0.25213,0.6864 1.58517,4.51052 4.78221,9.953588 7.97277,19.386928 9.94359,29.39966 0.30075,1.52796 0.90708,5.51656 1.3474,8.86354 0.96515,7.33631 1.60492,10.94894 2.62776,14.83825 2.34643,8.92226 6.012928,15.45165 11.130018,19.82059 3.390724,2.89498 3.024,2.9449 3.506164,-0.47721 0.84604,-6.00466 2.69868,-9.67898 6.79034,-13.46723 2.821105,-2.61191 7.628375,-4.91701 19.735555,-9.46323 3.20146,-1.20214 5.99942,-2.29552 6.21771,-2.42973 0.24878,-0.15298 -0.68906,-0.18907 -2.51355,-0.0967 -7.18337,0.36354 -20.89059,0.84278 -38.659599,1.35165 -3.781388,0.1083 -6.175198,0.0791 -6.271338,-0.0764 -0.23705,-0.38356 2.04965,-7.85893 2.96703,-9.69944 0.44504,-0.89287 1.407128,-2.41433 2.137968,-3.38103 1.63126,-2.15769 7.35182,-7.70399 10.807294,-10.478072 4.85212,-3.89532 12.238925,-8.5616601 19.163725,-12.10597 1.70589,-0.87312 3.10307,-1.67049 3.10484,-1.77192 0.002,-0.10144 -0.56471,-0.93487 -1.25883,-1.85208 -2.464,-3.255938 -3.26861,-6.414298 -2.60167,-10.212388 0.92907,-5.290857 4.24302,-9.141337 8.36163,-9.715347 4.73297,-0.65965 14.62741,4.93927 20.45115,11.572597 l 1.47502,1.68007 -1.60337,5.281828 c -0.88188,2.90501 -1.62854,5.31191 -1.65928,5.34867 -0.0308,0.0368 -1.35536,0.4278 -2.94357,0.86897 -2.49957,0.69432 -10.80212,3.3425599 -11.24535,3.5868999 -0.0856,0.0472 0.01,0.8882001 0.21109,1.8689301 0.44394,2.15878 0.3692,3.92711 -0.166,3.92711 -0.20633,0 -0.89956,-0.89297 -1.54057,-1.98438 -0.64098,-1.0914 -1.30564,-2.12446 -1.47695,-2.29568 -0.2389,-0.23871 -0.95938,-0.0481 -3.08967,0.81732 -6.7925,2.75947 -14.94681,7.665142 -24.182165,14.548092 l -3.941544,2.93756 1.957164,0.0872 c 3.7208,0.16576 28.300805,-0.78508 56.022015,-2.16712 9.21724,-0.45952 16.82136,-0.73398 16.89804,-0.6099 0.0767,0.12408 -0.67813,2.49275 -1.67735,5.26372 -1.37221,3.80528 -1.94628,5.08571 -2.34596,5.23262 -0.29104,0.10698 -1.37517,0.39389 -2.40921,0.63757 -1.94604,0.45861 -24.30685,8.01408 -34.76474,11.74662 -11.07073,3.95128 -20.56534,7.79533 -23.749835,9.61554 -1.79931,1.02845 -3.78439,2.73047 -4.99123,4.2795 -0.92496,1.18723 -0.94297,1.25166 -0.52717,1.88625 1.8888,2.88267 6.311985,5.46546 15.906775,9.28832 l 4.7625,1.89752 -0.0574,5.7747 c -0.0316,3.17609 -0.11421,5.92271 -0.18362,6.10361 -0.0949,0.24718 -0.86401,0.13534 -3.09547,-0.45011 -9.6464,-2.53084 -16.798825,-5.49184 -22.592669,-9.35303 -2.97405,-1.98199 -8.28201,-7.21483 -10.153228,-10.00953 -4.42324,-6.60617 -7.56186,-16.08845 -8.64787,-26.12659 -0.10233,-0.94589 -0.24576,-1.82327 -0.31872,-1.94975 -0.073,-0.12647 -0.39693,0.7665 -0.71992,1.98438 -1.56629,5.90586 -3.88907,9.44058 -11.45243,17.42787 -11.5750752,12.22386 -22.2723452,20.06233 -30.895676,22.63891 -2.781445,0.83108 -7.385836,1.15397 -9.620715,0.67467 -5.059371,-1.08504 -8.865825,-5.28142 -10.322375,-11.37979 -0.29012,-1.2147 -0.5776,-2.25865 -0.63884,-2.31989 -0.0612,-0.0612 -2.17997,1.23994 -4.70828,2.89151 -12.445507,8.12975 -24.467487,14.55296 -29.774157,15.90801 -5.83604,1.49022 -28.09969,3.47209 -31.97278,2.84616 z M 81.87983,-9.353875 c 2.58149,-0.919738 4.65836,-1.781658 4.61529,-1.915388 -0.14716,-0.4569 -5.56956,-3.55142 -7.04392,-4.0199 -1.87037,-0.59433 -4.52164,-0.59642 -6.27953,-0.005 -1.78005,0.59893 -2.08969,0.96914 -1.59703,1.90944 0.71438,1.36344 4.80373,5.918918 5.21469,5.809088 0.21828,-0.0583 2.50902,-0.85857 5.0905,-1.7783 z m -211.76349,88.937802 c -5.63281,-0.65793 -11.16616,-3.35613 -15.64185,-7.62737 l -2.04921,-1.9556 -2.39142,0.43752 c -3.62918,0.66396 -7.10245,0.5963 -9.56712,-0.18638 -8.70398,-2.76403 -14.23783,-13.08342 -14.23783,-26.55036 0,-4.03686 0.31022,-6.80144 1.22755,-10.93931 1.38456,-6.24555 4.67498,-14.94896 5.65162,-14.94896 0.57547,0 0.38756,1.28447 -0.71607,4.89479 -2.99457,9.79615 -3.52469,12.31433 -3.71057,17.6259 -0.20028,5.72261 0.63001,9.15848 3.08774,12.77765 2.62418,3.86428 7.7866,6.37353 13.1126,6.37353 h 2.16406 l -0.47565,-2.18281 c -1.91476,-8.78712 -0.98883,-20.78078 2.38268,-30.86336 1.20282,-3.59705 2.46244,-6.36601 3.19929,-7.03285 0.50352,-0.45568 0.53117,-0.4557 0.70584,-5.3e-4 0.10198,0.26578 -0.35884,2.6916 -1.04977,5.52612 -1.83133,7.51292 -2.31596,10.71759 -2.3245,15.37114 -0.0108,5.89862 0.97806,10.38927 3.23367,14.68438 1.67836,3.19593 1.54414,3.09435 3.34194,2.52939 9.82808,-3.08848 24.69122,-13.42378 35.61608,-24.76615 3.19483,-3.31693 7.6969,-8.67626 8.20175,-9.76349 0.34411,-0.74107 -2.13412,-6.18621 -2.71357,-5.96224 -0.23278,0.09 -1.65286,0.50934 -3.15573,0.93195 -3.54098,0.99572 -6.63781,1.39588 -9.80329,1.26674 -2.17148,-0.0886 -2.80512,-0.22564 -4.31278,-0.93282 -4.64206,-2.17742 -6.81823,-6.57269 -6.03331,-12.185682 0.89587,-6.4063901 4.11466,-11.75605 8.46635,-14.07115 2.93959,-1.56387 5.49556,-1.16114 9.14122,1.44036 2.69916,1.92608 5.92891,5.9608999 7.88822,9.85451 l 0.96594,1.91955 1.91044,-0.96209 c 1.94785,-0.98092 13.07886,-7.1343 13.55971,-7.496 0.14552,-0.10946 0.64982,-0.32857 1.12067,-0.4869 0.69436,-0.2335 0.93348,-0.21049 1.26575,0.12178 0.22532,0.22532 0.35174,0.60548 0.28096,0.84481 -0.0708,0.23932 -0.32742,1.43553 -0.57027,2.6582199 -1.13129,5.6955501 1.24525,9.7523701 6.60996,11.2833521 2.39073,0.68227 6.84886,0.27852 8.14714,-0.73783 0.38966,-0.30505 0.35167,-1.304982 -0.4499,-11.842562 -0.48152,-6.33016 -0.8869,-11.537938 -0.90084,-11.572848 -0.0139,-0.0349 -1.48386,0.7034 -3.26649,1.64071 -3.67146,1.930428 -8.48131,4.111298 -9.06739,4.111298 -0.53256,0 -0.49365,-0.52368 0.0716,-0.96305 0.25466,-0.19797 3.08715,-2.026268 6.29443,-4.062898 l 5.83141,-3.70297 -0.99009,-13.825647 c -1.16997,-16.33756 -2.13868,-29.25574 -2.89185,-38.56418 -0.50641,-6.258771 -0.61142,-6.934601 -1.45141,-9.341691 -0.49803,-1.42714 -0.90551,-2.7734 -0.90551,-2.99168 0,-0.74861 4.04464,-10.15622 4.36649,-10.15622 0.83406,0 8.59809,22.976791 8.59809,25.445101 0,1.313 -0.84265,0.90152 -2.60804,-1.27353 -0.90273,-1.1122 -1.74784,-2.21254 -1.87804,-2.44519 -0.1302,-0.23266 -0.28932,-0.36447 -0.35361,-0.29292 -0.12443,0.1385 3.42782,49.209527 3.57277,49.354477 0.24718,0.24718 6.56051,-5.361147 8.75598,-7.778207 l 1.28648,-1.41632 -1.41121,-0.93301 c -1.93729,-1.28082 -3.33883,-2.65202 -3.97886,-3.89271 -1.06082,-2.05642 -0.14834,-5.2977 2.10964,-7.49376 1.76151,-1.71322 3.7171,-2.72908 5.578547,-2.89787 1.35421,-0.12279 1.59729,-0.0643 2.34468,0.56463 0.45861,0.3859 0.9836,1.14422 1.16665,1.68516 0.54114,1.59923 0.36384,4.42604 -0.41848,6.67207 -0.38015,1.0914 -0.75395,2.16786 -0.83067,2.39212 -0.0946,0.27656 0.33398,0.73382 1.33213,1.42128 0.80939,0.55745 1.47161,1.13321 1.47161,1.27947 0,0.34706 -2.07946,4.11332 -2.37034,4.29309 -0.12297,0.076 -0.84923,-0.28285 -1.61392,-0.79744 -0.76469,-0.5146 -1.47327,-0.98689 -1.57462,-1.04953 -0.10136,-0.0626 -0.58294,0.44122 -1.07018,1.11969 -2.109847,2.93791 -6.396147,7.293407 -9.721587,9.878517 l -0.87195,0.67783 0.84993,11.096138 c 0.46746,6.1028699 0.90135,11.15566 0.96419,11.22842 0.1522,0.1762 1.30206,-1.18156 3.58511,-4.23333 3.75965,-5.02557 5.800787,-6.95168 6.914097,-6.52446 0.58076,0.22285 0.51246,1.00852 -0.24388,2.80552 -1.618387,3.84512 -1.35867,5.93321 1.04222,8.37915 1.96569,2.00256 3.66853,2.56963 7.28735,2.42675 2.31186,-0.0913 3.02415,-0.22664 4.23333,-0.8045 2.51182,-1.20041 2.53273,-1.23584 1.6992,-2.88072 -0.39296,-0.77548 -0.99589,-1.85575 -1.33984,-2.40059 -0.34395,-0.54485 -0.62536,-1.17015 -0.62536,-1.38955 0,-0.6618301 2.66818,-10.30845 2.92413,-10.572 0.69799,-0.71872 2.778705,6.25864 3.060078,10.26146 0.383283,5.45265 -2.135648,12.999322 -5.447638,16.321052 -2.07363,2.07973 -3.57147,2.74285 -6.22511,2.75596 -1.84005,0.009 -2.34762,-0.099 -3.88398,-0.82681 -2.91328,-1.38019 -5.577797,-4.32468 -6.718857,-7.42483 -0.25566,-0.69459 -0.5614,-1.37319 -0.67943,-1.50799 -0.31738,-0.3625 -1.13362,0.4646 -3.17645,3.21874 l -1.81315,2.44448 -8e-4,6.15448 c -0.001,8.69686 -0.69886,15.26316 -2.10527,19.81658 -0.9771,3.16348 -3.78745,6.89699 -9.04208,12.01226 -11.3089,11.009 -28.0342,20.57126 -42.05264,24.04252 -6.25363,1.54853 -11.25578,2.0114 -15.88875,1.47025 z m 13.52715,-11.77356 c 13.59676,-2.63761 29.33038,-10.61752 41.93035,-21.2666 2.68874,-2.27243 6.63956,-6.15617 8.18855,-8.04952 l 1.03868,-1.26961 -0.32168,-6.13371 c -0.4326,-8.24887 -0.57982,-9.76063 -0.93502,-9.60151 -3.04835,1.36566 -3.83921,1.57267 -6.47073,1.69376 -4.51428,0.20773 -7.08995,-0.62805 -9.58129,-3.10906 -2.25764,-2.24828 -3.95094,-6.49297 -3.95094,-9.90404 0,-0.653912 -0.10368,-1.253002 -0.2304,-1.331322 -0.12671,-0.0783 -2.53773,1.14352 -5.35781,2.715192 -4.09265,2.2809 -5.1158,2.96058 -5.06987,3.36793 0.0316,0.28068 0.0659,2.29628 0.0761,4.47909 0.0258,5.51241 -0.64121,9.09705 -2.31406,12.43541 -2.09487,4.18058 -5.76246,8.7071 -12.00984,14.82245 -8.10114,7.92994 -15.85022,13.8113 -24.33677,18.471 -0.80876,0.44406 -0.84158,0.50857 -0.38787,0.76248 1.63632,0.91573 5.23985,2.01424 7.95859,2.42612 1.68903,0.25587 9.59439,-0.0852 11.77396,-0.50806 z m 1.09695,-5.70518 c 0.0602,-0.20399 1.77281,-1.46258 3.80575,-2.79688 2.03294,-1.33429 5.60126,-3.67459 7.92959,-5.20067 2.32834,-1.52608 5.80006,-4.03348 7.71495,-5.57199 3.27638,-2.63241 8.56568,-7.60404 8.54963,-8.03616 -0.004,-0.10804 -0.72907,-0.67269 -1.61123,-1.25477 -4.88699,-3.2246 -5.46158,-7.00222 -1.66976,-10.97755 1.71196,-1.79482 3.87873,-2.96303 5.78966,-3.1215 1.25414,-0.104 1.47072,-0.0371 2.33493,0.72173 1.80199,1.58217 1.91761,4.93314 0.31694,9.18574 -0.36422,0.96764 -0.6309,1.77819 -0.59262,1.80121 0.96643,0.58153 2.84771,2.1102 2.84771,2.31396 0,0.34104 -2.19881,4.44173 -2.38125,4.44093 -0.0728,-2.7e-4 -0.82984,-0.46435 -1.68239,-1.03118 l -1.55011,-1.03061 -2.08756,2.59527 c -2.46744,3.06755 -6.54796,6.98722 -9.42333,9.05188 -2.39771,1.72168 -7.01871,4.27231 -12.69432,7.00683 -4.21686,2.03169 -5.79258,2.5677 -5.59659,1.90376 z m 30.75704,-27.11545 c 0.0883,-0.23018 0.1606,-0.81061 0.1606,-1.28984 0,-2.41548 -0.75812,-3.58355 -2.32542,-3.5829 -1.0429,5.3e-4 -2.73842,0.72091 -2.89811,1.23149 -0.14189,0.45369 1.34447,2.03403 2.91653,3.10091 1.55064,1.05234 1.91475,1.14401 2.1464,0.54034 z M -108.78154,7.727035 c 0.34491,-0.0866 0.62712,-0.26254 0.62712,-0.39105 0,-0.1285 -0.76062,-1.00938 -1.69025,-1.95749 -2.56806,-2.61912 -5.03129,-3.48956 -7.52812,-2.66025 -1.4466,0.48048 -3.21705,2.15011 -3.21705,3.03383 0,0.77283 2.10123,1.66504 5.29167,2.2469 0.80896,0.14754 5.65023,-0.0545 6.51663,-0.27194 z m 58.279907,-43.830925 c 0.0283,-1.07513 -0.58526,-2.82074 -1.10837,-3.15318 -0.94506,-0.60059 -4.156927,0.24783 -4.156927,1.09806 0,0.51969 1.75887,2.24874 3.307167,3.25109 1.58564,1.02653 1.58756,1.02698 1.75956,0.41618 0.0947,-0.33631 0.18406,-1.06177 0.19857,-1.61215 z M 174.86897,79.689287 c -0.22088,-0.22089 0.82621,-2.79111 1.35432,-3.32428 0.4794,-0.484 17.45911,-7.23103 17.66917,-7.02099 0.0692,0.0693 -0.11764,0.77679 -0.41527,1.57231 l -0.54118,1.44642 -2.57699,1.01015 c -10.884,4.26643 -14.04283,5.55664 -14.6454,5.98186 -0.38023,0.26832 -0.7603,0.41886 -0.84465,0.33453 z m 34.60461,-0.16176 c -0.066,-0.1819 -0.42571,-1.40229 -0.79941,-2.71198 -0.80581,-2.82418 -2.39855,-6.21071 -3.59415,-7.64207 l -0.85823,-1.02748 -0.47652,0.58845 c -0.39732,0.49067 -0.64291,0.56033 -1.47809,0.41922 -1.29667,-0.21907 -2.91769,-1.1443 -3.58746,-2.04763 -0.50715,-0.684 -0.51099,-0.76102 -0.0918,-1.85209 0.24056,-0.62612 0.68302,-1.54003 0.98324,-2.03091 0.51306,-0.83883 0.61561,-0.88465 1.70503,-0.76186 2.57437,0.29017 5.01439,2.62383 6.98598,6.68145 0.56565,1.16417 1.24164,2.83104 1.50215,3.70417 0.26053,0.87312 0.55089,1.68095 0.64524,1.79517 0.0944,0.11422 0.37676,-1.255 0.62754,-3.04271 0.69111,-4.92657 1.1749,-7.05506 2.01869,-8.8814 0.88569,-1.91704 1.89148,-2.57988 3.21474,-2.11859 0.89635,0.31248 3.12922,2.72355 3.12922,3.37897 0,0.25681 -0.24558,1.02213 -0.54578,1.70072 l -0.54575,1.23381 -0.80886,-0.68061 c -3.21583,-2.70594 -4.25572,-1.63362 -5.13173,5.29172 -0.67797,5.35972 -1.5853,8.33438 -2.54219,8.33438 -0.12753,0 -0.28586,-0.14883 -0.35185,-0.33073 z m 19.98361,-1.32292 c 0.004,-0.41907 0.84662,-0.96228 6.92923,-4.46784 14.20198,-8.18498 19.37797,-11.95601 27.34733,-19.92429 6.91534,-6.91437 10.4313,-11.99649 10.98,-15.87092 0.28199,-1.99135 0.0559,-6.16207 -0.81148,-14.96872 -0.27951,-2.83765 -0.68887,-7.24297 -0.90974,-9.78958 -0.22088,-2.54662 -1.05561,-11.357242 -1.85497,-19.579172 -0.79939,-8.221928 -2.34942,-24.533495 -3.44453,-36.247915 -3.19527,-34.179491 -2.94812,-32.004101 -4.0145,-35.335431 l -0.93599,-2.92397 2.07497,-5.07577 c 1.1412,-2.79167 2.21128,-5.07752 2.37789,-5.07967 0.49861,-0.006 5.66785,14.32988 7.65006,21.216591 0.90294,3.13708 1.1258,4.80898 0.67791,5.08579 -0.28887,0.17853 -1.31154,-0.82809 -2.90869,-2.86309 -1.0944,-1.39438 -1.23228,-1.49265 -1.29945,-0.92604 -0.0824,0.69499 2.0919,23.46842 4.96115,51.963047 2.93216,29.11934 3.37806,35.50779 3.0935,44.32142 -0.39848,12.3436 -3.14843,21.07661 -9.43472,29.96193 -2.48976,3.51911 -7.79899,8.76285 -10.45104,10.32208 -4.43677,2.60853 -12.1789,5.54233 -23.24097,8.80695 -5.99261,1.76853 -6.79146,1.93035 -6.78596,1.3746 z m -78.78879,-0.83615 c -2.73978,-1.30863 -6.25303,-5.51378 -8.32868,-9.96894 -0.46861,-1.00582 -0.94166,-1.82876 -1.05122,-1.82876 -0.10959,0 -1.21182,0.41916 -2.44943,0.93147 -5.80287,2.40211 -22.46633,7.53693 -22.93567,7.0676 -0.44178,-0.44178 0.45685,-1.05028 7.89072,-5.34307 3.89631,-2.24999 9.03301,-5.38441 11.41489,-6.9654 l 4.3307,-2.87451 -0.16245,-1.23669 c -1.21862,-9.2764 -0.73462,-20.06289 1.19224,-26.57055 0.52297,-1.76624 1.11982,-2.31787 1.48322,-1.37087 0.0876,0.22829 -0.12258,2.46071 -0.46704,4.96094 -0.78862,5.72415 -0.84537,13.67863 -0.1315,18.43649 0.25109,1.67349 0.55375,3.14161 0.6726,3.26249 0.30893,0.31423 3.48798,-2.46127 8.10731,-7.07816 5.2827,-5.27991 8.18586,-9.00219 9.98799,-12.80607 0.834,-1.76039 0.83699,-1.78214 0.82148,-6.00013 -0.01,-2.63203 -0.34041,-7.63611 -0.87442,-13.22917 -1.6207,-16.9756221 -3.47274,-36.79995 -5.3267,-57.017707 -3.19934,-34.889341 -3.05353,-33.581931 -4.13147,-37.042341 l -0.94802,-3.04338 2.02049,-4.89131 c 1.11127,-2.69023 2.12473,-4.99556 2.25213,-5.12296 0.33766,-0.33767 0.77862,0.65071 2.99289,6.70832 3.37185,9.22447 5.74818,16.888041 5.74979,18.542881 0.003,1.56886 -0.71332,1.19296 -2.79337,-1.46888 -1.34294,-1.71855 -1.58297,-1.92181 -1.64986,-1.39709 -0.0805,0.63184 2.30407,26.05192 4.83365,51.527257 2.33577,23.523528 2.36484,23.949078 2.3772,34.79271 0.0122,10.60064 -0.12099,12.20781 -1.46193,17.65544 -1.78168,7.23802 -5.08497,13.73407 -9.91748,19.50294 -2.43435,2.90608 -5.39718,5.74493 -7.32869,7.02207 -0.83675,0.55326 -1.52136,1.12708 -1.52136,1.27516 0,0.5863 2.14678,3.06551 3.33727,3.85406 1.74519,1.15596 3.00987,1.45925 4.63322,1.1111 4.82865,-1.03556 7.93028,-5.10325 13.50029,-17.70528 4.95263,-11.20522 7.83145,-15.95248 12.31934,-20.31496 l 2.2134,-2.15157 -1.06317,-13.32656 c -2.50812,-31.43868 -5.80443,-75.868757 -6.51449,-87.806778 -0.14211,-2.3894 -0.37053,-3.6254 -1.06384,-5.75654 l -0.88286,-2.71384 2.05472,-4.95908 c 1.2169,-2.93701 2.19888,-4.95908 2.40832,-4.95908 0.39804,0 2.51764,5.4331 5.16107,13.22917 3.03366,8.947041 3.92179,12.832291 2.9333,12.832291 -0.32827,0 -2.5432,-2.52467 -4.18928,-4.77512 -0.4641,-0.6345 -0.47122,-0.58453 -0.32131,2.26158 0.21241,4.03339 6.50338,90.083947 6.81728,93.249867 0.0527,0.53131 0.28546,0.70192 1.31392,0.96302 3.07504,0.78069 5.19303,2.86055 8.78295,8.62488 2.62941,4.22201 5.11112,7.55243 6.6923,8.98093 3.95655,3.57451 11.97334,4.14324 20.09732,1.42574 2.91034,-0.97353 5.61041,-2.23611 6.13582,-2.86919 0.36174,-0.43588 0.0872,-5.58047 -1.16028,-21.73983 -0.63534,-8.23037 -3.21148,-44.105317 -3.85828,-53.729907 l -0.32137,-4.78199 -2.37288,-2.75864 c -14.63072,-17.00907 -22.01561,-26.95308 -25.61956,-34.497581 -0.75644,-1.58357 -1.82263,-3.32264 -2.49652,-4.0722 l -1.17626,-1.30827 v -5.43561 c 0,-2.98959 0.09,-5.49122 0.19992,-5.55918 0.26572,-0.16423 15.26476,14.20007 16.53497,15.83524 1.09993,1.41596 1.27921,2.24876 0.48411,2.24876 -0.27945,0 -1.52008,-0.35719 -2.75696,-0.79375 -1.23687,-0.43656 -2.32328,-0.79375 -2.41421,-0.79375 -0.38349,0 6.0063,8.081331 12.94288,16.369161 2.48068,2.96392 4.71054,5.64105 4.95525,5.94917 0.24472,0.30812 0.50208,0.50247 0.57193,0.43188 0.0698,-0.0706 -0.28107,-5.41798 -0.77978,-11.88309 -0.90565,-11.740051 -0.90795,-11.757961 -1.8287,-14.318181 -0.50705,-1.40988 -0.92191,-2.71921 -0.92191,-2.90961 0,-0.6863 4.10736,-10.30045 4.36562,-10.21863 0.34351,0.10884 1.94263,3.99924 5.02037,12.21367 3.48921,9.312691 4.43992,12.870541 3.65024,13.660241 -0.44265,0.44263 -1.10805,-0.0613 -2.97167,-2.25039 -0.9366,-1.10018 -1.74749,-1.95573 -1.802,-1.90123 -0.10699,0.10699 1.4935,24.01134 1.6663,24.88722 0.0574,0.29104 3.05591,3.99265 6.66329,8.22581 3.60738,4.23316 7.50348,8.84483 8.65796,10.24816 1.15448,1.40333 2.14114,2.50943 2.19258,2.45799 0.0514,-0.0514 -0.20725,-4.06779 -0.57486,-8.92524 -0.76552,-10.11535 -2.05695,-28.20613 -2.65274,-37.16088 -0.35656,-5.358801 -0.50229,-6.408781 -1.19346,-8.598961 -0.43299,-1.37214 -0.78938,-2.67632 -0.79195,-2.89817 -0.003,-0.22186 0.51808,-1.65061 1.157,-3.175 0.63891,-1.5244 1.54299,-3.69436 2.00906,-4.82215 0.46606,-1.12779 0.98882,-2.05052 1.1617,-2.05052 0.58796,0 6.72923,17.38275 8.10242,22.933801 1.08611,4.39059 0.3121,4.36058 -3.10415,-0.12036 -0.80721,-1.0588 -1.51156,-1.8812 -1.56522,-1.82754 -0.18002,0.18002 3.80304,54.617147 4.0222,54.971707 0.0749,0.12118 1.65023,2.24048 3.50081,4.70955 4.12689,5.506228 6.18908,8.768088 8.80133,13.921388 2.2632,4.46474 4.19084,9.976102 4.85836,13.890622 0.23575,1.38245 0.50409,4.25041 0.59632,6.37324 0.16468,3.7898 0.0151,5.57913 -0.42746,5.10826 -0.12232,-0.13019 -0.75621,-1.84405 -1.40864,-3.80858 -2.05103,-6.17574 -4.88347,-11.8973 -9.0451,-18.271182 -1.72953,-2.64892 -5.78104,-8.19303 -5.90021,-8.07387 -0.0381,0.0381 0.52745,8.01725 1.25674,17.731462 0.7293,9.71422 1.32599,18.82835 1.32599,20.25362 0,6.33431 -1.18684,12.13287 -3.46223,16.91563 -1.35668,2.85162 -2.08143,3.3715 -1.50238,1.07767 0.61423,-2.4332 0.3479,-10.38293 -0.80664,-24.07708 -0.6073,-7.20328 -1.57898,-19.15716 -2.15929,-26.564172 -0.74927,-9.56344 -1.15795,-13.59 -1.40983,-13.89062 -0.19511,-0.232828 -1.94937,-2.328328 -3.89837,-4.656678 -4.79372,-5.72674 -13.27111,-15.516977 -13.35427,-15.422367 -0.0789,0.0898 1.93694,28.303435 2.89788,40.557797 1.34546,17.15817 1.50289,26.07255 0.55491,31.41961 -0.53001,2.98944 -1.98318,7.25663 -3.09716,9.09466 -1.60348,2.64573 -4.34798,4.48901 -8.997,6.04262 -7.51041,2.50983 -15.14162,2.20798 -19.63838,-0.77679 -2.38358,-1.58212 -3.74208,-3.33349 -9.54884,-12.31031 -0.70598,-1.09141 -1.71016,-2.4996 -2.23152,-3.12932 -1.03044,-1.24461 -2.9007,-2.74227 -3.19635,-2.55955 -0.10139,0.0627 -0.26035,1.33852 -0.35325,2.83525 -0.17907,2.88436 -0.81256,6.10669 -1.75736,8.93903 -0.68471,2.05254 -2.34114,5.4527 -2.87033,5.89188 -0.32329,0.26833 -0.3442,0.10559 -0.14586,-1.13569 0.28061,-1.75643 0.28638,-13.74837 0.007,-15.14798 l -0.19923,-0.99909 -1.21611,0.8668 c -3.27062,2.33115 -6.63212,6.73108 -8.99355,11.77175 -0.66705,1.42384 -2.27537,5.14198 -3.57408,8.26254 -3.82378,9.18795 -5.75659,12.73212 -8.32635,15.26806 -2.7822,2.7456 -6.50658,3.694 -9.28844,2.36527 z m -47.42487,-4.05864 c -0.005,-3.34059 -0.77456,-8.69163 -2.10701,-14.65789 -1.47494,-6.60426 -1.38284,-8.68121 0.47152,-10.63344 0.88852,-0.9354 1.83137,-1.44478 3.99074,-2.15604 l 1.68968,-0.55655 -0.73409,-0.48099 c -0.40375,-0.26454 -1.19335,-0.54259 -1.75469,-0.61788 -0.94022,-0.12611 -1.104,-0.0456 -2.08005,1.02215 -1.04367,1.14176 -1.05947,1.14835 -1.05947,0.44149 0,-1.17587 1.08874,-3.72734 1.9235,-4.50772 0.89019,-0.83221 2.05983,-0.94972 3.49297,-0.35091 1.10025,0.45971 3.11433,2.2792 3.86186,3.48875 0.50522,0.81746 0.52377,1.01067 0.22519,2.3449 -0.31039,1.38691 -0.36931,1.46067 -1.27643,1.59793 -4.52676,0.68494 -7.6893,1.75001 -8.31792,2.80129 -0.17634,0.29495 0.0767,1.81764 0.83547,5.02708 1.53115,6.47627 1.96025,9.36678 1.99941,13.46752 0.0333,3.48738 -0.38071,6.35 -0.91834,6.35 -0.13103,0 -0.24006,-1.16086 -0.24234,-2.57969 z m -20.72134,1.40656 c -3.33762,-0.89707 -5.03119,-3.82771 -4.41677,-7.64296 0.48847,-3.03303 2.7904,-6.37268 6.5923,-9.56407 1.03466,-0.86852 1.88119,-1.65661 1.88119,-1.75132 0,-0.22505 -1.68836,-0.49942 -3.09583,-0.50311 -2.34106,-0.006 -3.78378,0.50641 -5.02746,1.78605 -0.65191,0.67076 -1.25987,1.09453 -1.37988,0.96182 -0.11798,-0.13048 -0.0426,-0.98686 0.1674,-1.90306 0.67919,-2.96238 2.79144,-4.29204 6.80411,-4.28317 2.21456,0.005 4.79779,0.56111 5.39924,1.16255 0.39574,0.39575 0.37809,0.5777 -0.22704,2.34081 -0.64211,1.87073 -0.71569,1.96098 -3.43429,4.21184 -3.24525,2.68688 -4.80491,4.36743 -5.57622,6.00834 -1.36401,2.90175 0.63201,5.5792 4.16388,5.58543 1.38498,0.002 4.71482,-0.71968 6.21842,-1.34855 2.07341,-0.86719 4.78144,-2.71892 6.57524,-4.49607 0.86728,-0.85923 1.69735,-1.56224 1.84465,-1.56224 1.31429,0 -2.61787,5.50065 -5.65182,7.90623 -3.71068,2.94217 -7.43733,4.00527 -10.83712,3.09148 z m 95.70246,-3.87958 c 0.0992,-0.64075 0.41257,-1.48424 0.69623,-1.87443 l 0.51575,-0.70944 -0.92694,-0.57288 c -0.99653,-0.61588 -1.70786,-1.72631 -1.70786,-2.66604 0,-0.77826 1.6211,-3.6338 2.55823,-4.50628 0.92744,-0.86347 2.2602,-1.55156 3.00524,-1.55156 0.90956,0 2.10944,1.39571 2.10944,2.45371 0,0.8906 -0.46109,2.57338 -0.70511,2.57338 -0.0683,0 -0.51718,-0.41672 -0.99753,-0.92604 -0.95068,-1.00801 -2.12664,-1.21935 -3.44427,-0.61899 -0.89789,0.4091 -0.85376,1.14131 0.12798,2.12305 0.77158,0.77159 0.87413,0.79781 2.71198,0.69362 1.72035,-0.0975 2.10719,-0.23039 3.89445,-1.3375 2.1358,-1.32299 2.32868,-1.27952 2.00393,0.45162 -0.14025,0.74758 -0.57404,1.13607 -3.26564,2.92462 -1.70715,1.13439 -3.75875,2.55901 -4.55912,3.16582 -2.27436,1.72435 -2.22401,1.71492 -2.01676,0.37734 z m 47.26051,0.47206 c 0,-0.70101 0.83579,-2.78372 1.27754,-3.1835 0.56666,-0.51281 19.59867,-7.96033 19.80787,-7.75112 0.0844,0.0843 -0.0727,0.78202 -0.34885,1.55044 l -0.50215,1.39712 -9.25732,3.60637 c -5.09151,1.9835 -9.64425,3.85983 -10.11719,4.16962 -0.61013,0.39964 -0.8599,0.46095 -0.8599,0.21107 z m -115.88573,-3.02612 c 0,-0.10914 0.86419,-0.66416 1.91823,-1.23337 4.54491,-2.45436 11.73033,-7.43122 14.02115,-9.7115 0.83674,-0.8329 1.52135,-1.6241 1.52135,-1.75823 0,-0.13413 -0.47093,-0.38497 -1.04651,-0.55741 -0.5756,-0.17245 -1.23044,-0.49746 -1.4552,-0.72224 -0.56415,-0.56415 -0.51311,-2.20719 0.12033,-3.87379 0.63156,-1.66166 0.61963,-1.52419 0.13242,-1.52419 -0.50808,0 -0.50548,-0.61002 0.007,-1.60064 0.32822,-0.6347 0.57365,-0.78061 1.313,-0.78061 2.68401,0 6.37643,2.65717 7.02154,5.05292 0.38758,1.4394 0.14541,3.37897 -0.50284,4.02723 -0.50636,0.50634 -2.17795,0.65508 -3.67263,0.32679 -0.67154,-0.14749 -0.80952,-0.0386 -1.52604,1.20416 -1.88116,3.2628 -10.07692,9.00263 -15.42902,10.80563 -1.69693,0.57166 -2.42551,0.67549 -2.42258,0.34525 z m 23.01698,-14.57853 c 0,-0.57229 -2.75643,-3.74459 -3.00492,-3.45828 -0.0531,0.0612 -0.17339,0.79344 -0.26729,1.62718 -0.16819,1.49364 -0.16002,1.51826 0.55857,1.67679 0.4011,0.0885 0.84833,0.20061 0.99385,0.24915 0.55359,0.18467 1.71979,0.12035 1.71979,-0.0948 z m -4.34343,-1.68022 c -0.31316,-1.95855 -1.13614,-2.32809 -2.35394,-1.05698 -1.08119,1.12851 -0.93274,1.5235 0.72115,1.91889 1.73035,0.41366 1.82851,0.36185 1.63279,-0.86191 z m 104.74275,5.94 c 0.0996,-0.54571 0.40241,-1.37218 0.67286,-1.83661 l 0.49171,-0.84441 -0.90803,-0.53574 c -1.26008,-0.74348 -1.91167,-2.1567 -1.49876,-3.25066 1.76234,-4.66895 5.83343,-6.82641 7.34941,-3.89481 0.37606,0.72721 0.37563,0.933 -0.005,2.24112 -0.23029,0.79221 -0.50469,1.43579 -0.60976,1.43019 -0.10509,-0.006 -0.42995,-0.38996 -0.72191,-0.85412 -0.72869,-1.15846 -1.70519,-1.46455 -3.1142,-0.9762 -1.34702,0.46688 -1.49426,0.98013 -0.58957,2.05529 0.50718,0.60277 0.9988,0.86152 1.89103,0.99532 1.52222,0.22827 2.6702,-0.11445 4.9117,-1.46636 0.97268,-0.58666 1.83459,-1.06666 1.91531,-1.06666 0.21768,0 0.17016,1.93783 -0.0557,2.27197 -0.10692,0.15818 -1.50408,1.15735 -3.10481,2.22039 -1.60073,1.06304 -3.69887,2.5112 -4.66256,3.21814 -0.9637,0.70693 -1.84015,1.28533 -1.94768,1.28533 -0.10753,0 -0.11401,-0.44648 -0.0143,-0.99218 z m -287.72432,-10.8554 c 0,-0.11325 0.83722,-1.33364 1.8605,-2.71198 3.070027,-4.13527 4.301767,-7.21766 3.848887,-9.63174 -0.21253,-1.13286 -1.16918,-1.87225 -2.1152,-1.63481 -0.89479,0.22458 -2.193857,1.37233 -3.001757,2.65212 -0.89216,1.41328 -1.04041,0.85271 -0.36284,-1.37195 1.39616,-4.58403 5.028527,-7.53373 6.834967,-5.55041 1.24921,1.37151 1.54104,3.03946 1.03686,5.92611 -0.63636,3.64346 -2.69612,7.32831 -6.07889,10.87493 -1.476517,1.54805 -2.022527,1.93888 -2.022527,1.44773 z m -112.18333,-2.34576 c 0,-0.0846 0.55244,-0.88454 1.22765,-1.77764 1.65151,-2.18442 2.74063,-4.52951 2.74089,-5.90165 3.1e-4,-1.62395 -0.1945,-1.93986 -1.19624,-1.93986 -0.71076,0 -1.08548,0.23618 -1.99392,1.25677 -1.07019,1.20231 -1.11057,1.22237 -0.93191,0.46302 0.32064,-1.36285 1.36629,-3.40847 2.12531,-4.15785 2.62402,-2.59062 4.71759,0.20623 3.42299,4.57285 -0.23434,0.79039 -0.64782,1.87248 -0.91885,2.40463 -0.97897,1.92213 -4.47592,5.89082 -4.47592,5.07973 z m 24.98802,-2.92833 c 0.47478,-1.23727 0.73547,-5.04842 0.59338,-8.6752 -0.0855,-2.18281 -0.8155,-12.00547 -1.62219,-21.82812 -0.80668,-9.822662 -1.46736,-18.043892 -1.46817,-18.269402 -0.001,-0.28061 -0.61212,-0.58967 -1.93634,-0.97926 -7.77363,-2.287038 -12.22451,-11.095988 -11.73081,-23.216975 0.16238,-3.98654 0.67752,-7.87884 1.88976,-14.27871 0.83141,-4.38933 1.07405,-6.49108 0.74936,-6.49108 -0.13833,0 -0.55249,0.32742 -0.92036,0.72761 -2.41432,2.62641 -4.26233,8.39584 -6.97058,21.76197 -1.81393,8.952337 -2.53992,11.695597 -3.8228,14.444887 -1.5615,3.34641 -3.28311,4.983948 -6.12806,5.828808 -2.57937,0.76599 -4.87776,-0.035 -7.43331,-2.590568 -2.66609,-2.6661 -4.67575,-7.00524 -5.67778,-12.259167 -0.62996,-3.30305 -0.76132,-11.45681 -0.25482,-15.81737 0.67374,-5.80034 2.31163,-12.81442 3.10717,-13.30609 0.71775,-0.4436 0.76848,0.47509 0.25082,4.54239 -1.63937,12.88073 -1.33603,20.34915 1.03228,25.41512 0.95311,2.038747 2.70797,4.316737 3.75855,4.878997 0.8983,0.48076 2.89734,0.71755 3.84609,0.45559 1.43106,-0.39513 3.15483,-2.17024 4.17029,-4.294477 1.15111,-2.40801 1.88923,-5.02584 3.84823,-13.64812 3.18916,-14.03664 4.77297,-18.79777 8.1414,-24.47395 3.33123,-5.61352 6.4185,-7.37929 7.86174,-4.49655 0.44387,0.8866 0.5245,1.5474 0.5002,4.09967 -0.0303,3.17977 -0.32706,5.64188 -1.81792,15.08125 -1.28481,8.13485 -1.55505,10.85967 -1.35004,13.61224 0.3651,4.90168 1.59714,8.19182 3.86026,10.308697 1.24545,1.16497 3.58049,2.4828 3.87587,2.18743 0.0713,-0.0713 -0.53326,-8.743027 -1.34343,-19.270547 -0.81017,-10.52752 -1.76776,-23.18907 -2.128,-28.13678 -0.60696,-8.336541 -0.71372,-9.176091 -1.45668,-11.455411 -0.44095,-1.35277 -0.80172,-2.57015 -0.80172,-2.70529 0,-0.64979 4.08224,-10.04867 4.36447,-10.04867 0.79871,0 8.60012,22.947781 8.60012,25.297191 0,1.56386 -0.966,0.92242 -3.39552,-2.25469 l -1.49928,-1.96062 -0.0781,0.90229 c -0.0678,0.78307 3.0952,44.35905 3.5472,48.869417 l 0.16687,1.66505 1.22472,-0.1652 c 3.74598,-0.5053 7.6846,-2.14687 9.96313,-4.152517 1.424,-1.25345 3.18891,-3.6786 4.32059,-5.93689 1.87544,-3.74249 2.61762,-8.72902 2.14909,-14.43919 -0.65428,-7.97394 -1.7532,-13.54478 -4.01375,-20.34733 l -1.37583,-4.14019 1.79802,-4.987931 c 0.98891,-2.74336 1.91009,-5.106 2.04708,-5.2503 0.38575,-0.40637 0.59267,0.0798 2.58896,6.0832 3.0738,9.243761 3.92383,12.949921 5.58287,24.341671 1.83567,12.6046 3.28101,17.45588 6.23869,20.94017 2.38462,2.80919 6.29687,4.65443 9.89359,4.66639 3.4887,0.0116 6.85334,-1.16904 8.75715,-3.07285 1.67917,-1.67917 1.65001,-1.79799 -3.17896,-12.95305 -3.65875,-8.4518 -5.74093,-15.31956 -6.87542,-22.67754 -0.40637,-2.63562 -0.72943,-3.78281 -1.59073,-5.64874 -0.59444,-1.28779 -1.08079,-2.54907 -1.08079,-2.80283 0,-0.58939 3.39341,-10.655201 3.694,-10.957441 0.12484,-0.12553 0.39542,0.0516 0.60622,0.39687 0.20941,0.34298 2.12055,3.43824 4.24698,6.87836 4.61115,7.459871 5.7403,9.473641 5.7403,10.237531 0,0.77528 -0.29189,0.72967 -2.97557,-0.46504 l -2.3141,-1.03017 0.16291,0.70354 c 0.0896,0.38695 1.74769,5.52558 3.68464,11.41917 3.67217,11.1734 4.72894,15.08779 5.1231,18.97648 0.81812,8.07145 -2.67075,17.081647 -7.91805,20.448837 -5.11724,3.283718 -12.94766,2.31971 -17.88169,-2.20145 -3.61977,-3.31686 -5.82146,-7.465317 -7.37953,-13.904657 l -0.47147,-1.9485 -0.5999,2.34538 c -0.8717,3.40802 -1.83252,5.91727 -3.58282,9.356827 -2.38532,4.68742 -4.96522,7.40362 -8.90873,9.379358 -1.79608,0.89985 -5.35028,1.99773 -6.46731,1.99773 -0.43602,0 -0.4781,0.15188 -0.34817,1.25677 0.0813,0.69122 0.57213,6.8527099 1.09079,13.69219 1.30459,17.203512 1.13773,22.159392 -0.96452,28.648352 -0.79558,2.4557 -2.66625,6.14436 -3.11605,6.14436 -0.24186,0 -0.31077,-0.15798 -0.19759,-0.45293 z m 268.27945,-0.40697 c 0.0931,-0.47294 0.23691,-2.7649 0.31967,-5.09323 0.13166,-3.70338 -0.0518,-6.7175 -1.46523,-24.07708 -0.88863,-10.914062 -2.07809,-25.71379 -2.64322,-32.8883 l -1.02753,-13.044537 -1.30625,-1.50755 c -17.22903,-19.88389 -25.7529,-31.32223 -29.71136,-39.870151 -0.53962,-1.16525 -1.47339,-2.67269 -2.07505,-3.34986 l -1.09392,-1.23123 v -5.60384 c 0,-3.14776 0.10282,-5.56519 0.23458,-5.51565 0.488,0.18349 14.72158,13.92107 16.0754,15.51523 1.33157,1.56797 1.62208,2.13916 1.26809,2.49317 -0.21664,0.21663 -2.95166,-0.46353 -4.45479,-1.10785 -0.71056,-0.30458 -1.338,-0.50772 -1.39427,-0.45142 -0.10779,0.10778 4.0844,5.620761 7.67826,10.097401 4.34342,5.41031 13.46885,16.29228 13.57413,16.187 0.06,-0.06 -0.2495,-4.91719 -0.68773,-10.79385 -0.43821,-5.87665 -0.87329,-11.994511 -0.96687,-13.595241 -0.13211,-2.26005 -0.37446,-3.55101 -1.08458,-5.77711 l -0.91448,-2.86669 2.0347,-4.93852 c 1.11908,-2.71618 2.13767,-5.04896 2.26354,-5.18395 0.29718,-0.3187 0.91432,1.09908 3.13563,7.20349 3.17682,8.7302 5.56956,16.502201 5.57106,18.095611 0.003,1.72874 -0.83232,1.13254 -3.73422,-2.66968 -1.21126,-1.58704 -1.29204,-1.64505 -1.28974,-0.92604 0.003,0.42188 0.47707,7.07737 1.05712,14.78998 0.58004,7.7126 1.05518,14.15424 1.05587,14.31475 0,0.16052 1.94186,2.66811 4.31377,5.57243 8.42528,10.31652 14.14695,17.850937 17.14619,22.578447 5.06328,7.980968 8.1639,15.905508 8.9622,22.90545 0.33949,2.9769 0.2662,9.07746 -0.11022,9.1762 -0.13677,0.0359 -0.5688,-1.00634 -0.9601,-2.31603 -2.15664,-7.21865 -6.65419,-15.930752 -12.16604,-23.566632 -3.23493,-4.481528 -15.79838,-20.109125 -16.00208,-19.904895 -0.0438,0.0439 0.68916,10.081107 1.62883,22.304865 1.55982,20.291272 1.69807,22.719942 1.58874,27.913542 -0.12779,6.07017 -0.41423,7.94228 -1.88605,12.32675 -1.245,3.70881 -3.41884,7.26887 -2.93405,4.80502 z m -259.22716,-0.2335 c -0.66832,-0.38849 -1.23198,-1.83918 -1.23198,-3.17073 0,-0.60836 0.50223,-2.60649 1.11607,-4.44027 1.25175,-3.73946 1.20045,-3.61936 1.44247,-3.37734 0.0975,0.0975 -0.13556,1.33774 -0.51793,2.75607 -1.01603,3.76881 -1.05894,4.1321 -0.61391,5.19722 0.63346,1.51606 1.81417,1.15218 2.48663,-0.76635 0.26983,-0.76979 0.27886,-0.75633 0.29911,0.4458 0.0446,2.64615 -1.40102,4.27371 -2.98046,3.3556 z M 2.1157978,38.035767 c -0.25183,-0.14675 -0.75785,-0.77866 -1.12447948,-1.40426 -0.56114,-0.95753 -0.66624,-1.46859 -0.66443,-3.23087 0.002,-1.87522 0.17875,-2.61267 1.69628948,-7.07495 0.93177,-2.73984 1.76423,-5.05164 1.84993,-5.13733 0.41819,-0.41819 0.0616,1.75552 -0.7731,4.71194 -1.49663,5.30128 -1.4933,7.62593 0.0124,8.61248 0.53397,0.34987 0.73051,0.35761 1.36545,0.0538 0.67767,-0.32428 1.16903,-1.06687 1.89402,-2.86246 0.46613,-1.15445 0.36215,2.08565 -0.11891,3.70557 -0.7004,2.35851 -2.56508,3.54214 -4.13713,2.62611 z m -29.4147998,-4.08252 c -0.392433,-0.36369 -0.886068,-1.07425 -1.096968,-1.579 -0.490445,-1.1738 -0.487074,-4.09022 0.0069,-5.96182 0.303819,-1.15116 2.16893,-6.58508 2.99687,-8.73125 0.10084,-0.2614 0.186507,-0.1543 0.250962,0.31376 0.05382,0.39085 -0.331774,2.23632 -0.856885,4.10104 -1.200962,4.26474 -1.414145,6.47378 -0.74849,7.75603 1.002652,1.9314 3.114262,1.11095 3.762068,-1.46172 0.163989,-0.65126 0.371279,-1.18411 0.46064,-1.18411 0.416419,0 -0.121762,4.17065 -0.692783,5.36874 -0.963006,2.02054 -2.74144,2.621 -4.082304,1.37833 z m 238.496662,-0.54928 c 0,-0.1408 0.60703,-1.08689 1.34895,-2.10242 0.74192,-1.01553 1.57758,-2.29252 1.85703,-2.83776 0.58865,-1.14855 0.903,-3.04409 0.66326,-3.99934 -0.36039,-1.43591 -2.2701,-0.97384 -3.37703,0.81708 -0.83175,1.34573 -0.94888,0.6058 -0.21471,-1.35644 0.646,-1.72662 2.16336,-3.47015 3.2594,-3.74524 0.60142,-0.15094 0.88339,-0.0507 1.44917,0.51534 0.64331,0.64355 0.70088,0.87492 0.68369,2.74697 -0.0156,1.69836 -0.15608,2.3415 -0.83021,3.80126 -0.44628,0.96636 -1.28776,2.39511 -1.86997,3.175 -1.18097,1.58193 -2.96958,3.38016 -2.96958,2.98555 z m -393.0554,-11.33403 c -1.13476,-0.49419 -2.5449,-2.23367 -3.16369,-3.90257 -0.41098,-1.10846 -0.516,-2.00983 -0.48819,-4.19036 0.0396,-3.10557 0.51328,-5.031412 2.66812,-10.847922 0.67389,-1.81901 1.59788,-4.47552 2.0533,-5.90337 0.45542,-1.42784 0.94066,-2.55894 1.07831,-2.51354 0.53249,0.17562 0.09,3.1129 -1.07329,7.1242 -2.0024,6.90485 -2.37375,9.534662 -1.69274,11.987492 0.65778,2.36916 2.78829,3.24866 4.4607,1.84141 1.02212,-0.86006 1.51401,-1.79229 1.9435,-3.68338 0.18368,-0.80877 0.44904,-1.49441 0.58969,-1.52363 0.36724,-0.0763 0.46092,3.53408 0.13714,5.28555 -0.32097,1.7363 -1.38549,4.18141 -2.2118,5.08033 -0.61613,0.67028 -2.43109,1.61095 -3.09357,1.60336 -0.21828,-0.002 -0.76164,-0.16341 -1.20748,-0.35757 z m 23.81015,-1.4122 c -1.1248,-5.06482 -3.09975,-10.25655 -4.70531,-12.369272 -0.40116,-0.52787 -0.40309,-0.52788 -0.79164,-0.003 -0.38648,0.5218 -0.40109,0.52194 -1.88316,0.0182 -1.82607,-0.6207 -3.05289,-1.88119 -3.04924,-3.13294 0.003,-0.94191 1.3865,-3.56925 2.0048,-3.80651 0.69352,-0.26613 2.83296,0.75837 4.1434,1.98414 2.18124,2.0403 3.90178,5.46236 4.94737,9.840062 0.28586,1.19689 0.56065,2.21706 0.61063,2.26704 0.05,0.05 0.42143,-2.09836 0.82544,-4.77409 1.19024,-7.882792 2.13507,-10.8926321 3.66823,-11.685462 1.32594,-0.68567 2.76696,0.0651 4.25996,2.21953 l 0.713,1.02886 -0.56877,1.3686 c -0.31282,0.75272 -0.65558,1.36859 -0.76169,1.36859 -0.10611,0 -0.64577,-0.35988 -1.19925,-0.79973 -1.40316,-1.11509 -2.12905,-1.25018 -2.88777,-0.5374 -0.84372,0.79263 -1.33046,2.7354 -2.12177,8.468802 -0.98638,7.14677 -1.60348,9.27249 -2.69182,9.27249 -0.19296,0 -0.42354,-0.32742 -0.51241,-0.7276 z m 220.5599,-1.71979 c 0.006,-0.1819 0.33605,-1.16343 0.73398,-2.18117 0.62292,-1.59317 0.87677,-1.93499 1.82583,-2.45852 0.95186,-0.52508 9.14895,-3.6223 46.17781,-17.448052 3.7464,-1.39882 6.87808,-2.47688 6.95928,-2.39567 0.0812,0.0812 -0.18671,1.01819 -0.59539,2.08219 l -0.74303,1.93454 -17.59333,6.55693 C 70.73578,15.665507 64.5861,18.017857 63.63945,18.660267 c -1.03391,0.70163 -1.14141,0.72811 -1.12714,0.27768 z m 130.69368,-3.58714 c 0,-0.42999 0.87279,-2.83414 1.16197,-3.20072 0.38667,-0.49015 0.21868,-0.42151 14.6511,-5.986662 6.87818,-2.65224 12.55897,-4.7362 12.62395,-4.63103 0.14293,0.23124 -0.71733,2.56331 -1.06793,2.895 -0.13711,0.12973 -5.90476,2.40062 -12.817,5.04641 -6.91224,2.645802 -13.0142,5.100272 -13.5599,5.454382 -0.5457,0.3541 -0.99219,0.54428 -0.99219,0.42262 z M -0.73360168,11.691657 c 0,-0.15337 0.72928,-1.27949 1.62063,-2.502482 2.74742948,-3.76969 3.75961948,-6.79766 2.77476948,-8.3007401 -0.88101,-1.34458 -2.80950948,-0.5233 -4.33741948,1.8471601 -0.70077052,1.0872 -0.0442,-1.54758 0.81954,-3.2888201 C 1.0233278,-2.326025 2.3193078,-3.591795 3.5653478,-3.894895 c 0.59571,-0.14491 0.8665,-0.0276 1.49873,0.6492 2.46452,2.6382799 0.28082,9.33206 -4.57914948,14.036642 -0.67019,0.64876 -1.21853,1.05408 -1.21853,0.90071 z M 188.70808,6.049425 c 0,-0.14006 0.23926,-0.89414 0.5317,-1.67574 0.46731,-1.24903 0.68356,-1.49186 1.78594,-2.00546 2.93079,-1.36548 18.72454,-7.36252 18.80711,-7.14123 0.13544,0.36308 -0.80684,2.83831 -1.13138,2.97195 -0.15505,0.0638 -4.15145,1.6232599 -8.88087,3.46537 -4.72943,1.8421 -9.11998,3.63964 -9.75678,3.99453 -1.30765,0.72875 -1.35572,0.74261 -1.35572,0.39058 z M 33.193263,5.479535 c -2.63092,-1.30228 -3.63828,-3.82437 -3.52792,-8.83274 0.0914,-4.14875 0.0876,-4.32535 -0.11856,-5.48939 -0.0966,-0.5453 -0.10611,-1.268358 -0.0212,-1.606798 0.17216,-0.68591 1.92601,-3.09027 2.25419,-3.09027 0.37959,0 0.8241,1.32688 0.82406,2.45985 -3e-5,0.61161 -0.17862,2.045238 -0.39688,3.185818 -0.73092,3.81972 -0.44481,6.114 0.96229,7.7165999 0.99407,1.13218 2.16168,1.4857901 3.77203,1.14233 1.563098,-0.33337 3.738238,-2.2304699 4.112818,-3.5870799 0.32731,-1.18543 -0.0422,-4.06132 -0.9044,-7.03792 l -0.61812,-2.134108 0.57105,-1.40154 c 0.31407,-0.77085 0.65728,-1.40172 0.76269,-1.40192 0.6033,-10e-4 1.13239,1.98468 2.18691,8.208208 0.71706,4.23193 1.98433,5.6732399 4.98819,5.6732399 1.379244,0 1.622334,-0.0839 2.204294,-0.7604299 0.804,-0.9347 0.75678,-1.16125 -0.9986,-4.79112 -1.653284,-3.41874 -1.838614,-4.802118 -0.972034,-7.255618 0.712514,-2.01729 1.167664,-2.30882 1.394494,-0.8932 0.21774,1.35891 0.91897,3.44589 2.09304,6.229238 1.28945,3.05689 1.43863,4.42594 0.7177,6.58618 -0.96637,2.89569 -3.17666,5.29582 -5.232034,5.68141 -1.65126,0.30978 -3.75152,-0.86628 -5.21683,-2.92123 -0.34774,-0.4876601 -0.39732,-0.4556101 -0.93955,0.60724 -1.85113,3.6285 -5.039938,5.12779 -7.897658,3.71325 z M 201.02443,-12.150593 c -0.93072,-3.97277 -2.80352,-8.78408 -4.17692,-10.730657 -0.48641,-0.68943 -0.55756,-0.7122 -0.99327,-0.31788 -1.2431,1.12497 -5.0518,-1.3215 -5.02206,-3.22583 0.004,-0.26189 0.39293,-1.19054 0.8641,-2.06366 0.84183,-1.56 0.87493,-1.5864 1.9108,-1.52405 1.47203,0.0886 3.68802,1.70867 5.04401,3.68756 1.34263,1.95938 2.55694,4.843497 3.39553,8.064807 0.35391,1.35942 0.65445,2.35261 0.66786,2.20709 0.10401,-1.12692 1.38975,-9.109307 1.70813,-10.604587 0.92445,-4.34167 2.28182,-6.42041 3.97166,-6.08244 0.82375,0.16475 2.16672,1.28983 3.12068,2.61436 0.52139,0.72392 0.5234,0.77746 0.0745,1.98437 -0.25374,0.68221 -0.55081,1.33954 -0.66014,1.46074 -0.10935,0.12119 -0.75766,-0.20623 -1.44068,-0.72761 -1.48024,-1.12989 -2.28904,-1.19818 -3.03027,-0.25588 -0.85548,1.08759 -1.10887,2.23155 -2.13225,9.626677 -0.79862,5.77113 -1.48471,7.93751 -2.51376,7.93751 -0.16912,0 -0.52369,-0.92274 -0.7879,-2.05052 z m -91.08347,-1.45521 c -0.78589,-0.8621 -1.20883,-2.41035 -1.01338,-3.70966 0.1334,-0.88669 2.16527,-7.383277 2.45324,-7.843817 0.0379,-0.0606 0.14735,-0.0318 0.24321,0.064 0.0959,0.0959 -0.2018,1.58872 -0.66146,3.317477 -0.45966,1.72876 -0.83574,3.46203 -0.83574,3.85171 0,1.13476 0.71488,2.26973 1.42959,2.26973 0.74703,0 1.0939,-0.38005 1.59505,-1.7476 l 0.37766,-1.03053 0.013,1.32292 c 0.0298,3.07653 -2.10109,5.15108 -3.60101,3.50574 z M 64.13388,-30.23722 c 0.12993,-0.4212 2.51791,-2.04789 7.67406,-5.22757 4.97987,-3.07098 9.79538,-6.72755 13.13405,-9.97309 l 2.82755,-2.7487 -0.66146,-0.44444 c -4.78661,-3.21615 -5.70569,-5.27 -3.9397,-8.80403 1.32482,-2.65119 4.38796,-4.77043 6.91208,-4.78214 2.68245,-0.0124 3.8045,2.44776 2.96656,6.50446 -0.23505,1.138 -0.59592,2.39501 -0.8019,2.79336 -0.58478,1.13081 -0.46834,1.42727 0.96512,2.45709 l 1.33964,0.96245 -1.09873,2.03894 c -0.60431,1.12141 -1.13644,2.07735 -1.18248,2.1243 -0.0461,0.047 -0.75157,-0.35805 -1.56784,-0.90001 -0.81624,-0.54195 -1.51866,-0.93755 -1.56094,-0.87911 -2.29449,3.17131 -6.62403,7.54931 -9.44014,9.54582 -1.99237,1.4125 -7.04497,4.10452 -11.2811,6.01055 -3.45724,1.55557 -4.45142,1.86233 -4.28477,1.32212 z m 25.9886,-22.87929 c 0.58655,-1.52854 -0.18381,-4.22113 -1.28691,-4.49799 -1.33591,-0.33529 -3.31499,0.46097 -3.31499,1.33373 0,0.39599 1.40737,1.72741 2.91042,2.75335 1.38517,0.94548 1.47772,0.96797 1.69148,0.41091 z m 47.38872,18.6313 c -2.10439,-1.16103 -2.82077,-3.02873 -2.79791,-7.29445 0.008,-1.5667 0,-3.17182 -0.0209,-3.56693 -0.036,-0.71405 1.14924,-2.58891 1.6366,-2.58891 0.47408,0 0.59666,1.42531 0.29372,3.41575 -0.58735,3.85935 -0.21157,5.73203 1.30791,6.51778 0.97266,0.50298 1.46386,0.47955 2.81625,-0.13437 1.65796,-0.75263 2.25925,-1.86592 2.07105,-3.8346 -0.0829,-0.86683 -0.34573,-2.27126 -0.58414,-3.12094 -0.35693,-1.27204 -0.37812,-1.72966 -0.12002,-2.59113 0.17243,-0.57543 0.40865,-1.04624 0.52496,-1.04624 0.39754,0 0.80963,1.31226 1.22394,3.89764 0.57057,3.56035 0.8206,4.37909 1.54514,5.05976 1.33453,1.25373 4.14483,0.94366 4.13909,-0.45669 -0.003,-0.38252 -0.47654,-1.70753 -1.05548,-2.94446 -0.57893,-1.23693 -1.05391,-2.49524 -1.05547,-2.79625 -0.005,-0.83934 0.78046,-3.28917 1.05373,-3.28917 0.13329,0 0.32334,0.44649 0.42238,0.99219 0.099,0.54571 0.65407,2.17569 1.23348,3.6222 0.89882,2.24386 1.0309,2.82084 0.89956,3.92971 -0.27099,2.28813 -2.10555,4.69296 -3.87691,5.08201 -1.03233,0.22674 -2.57202,-0.53723 -3.33042,-1.65247 l -0.55258,-0.81262 -0.47705,0.83564 c -1.44025,2.52293 -3.65368,3.68316 -5.29693,2.77655 z m -312.32951,-4.01294 c -0.006,-0.12097 0.69196,-1.19253 1.55128,-2.38125 2.27052,-3.1409 3.04921,-5.40454 2.33625,-6.79152 -0.57399,-1.11663 -1.41601,-0.99423 -2.75195,0.40004 -0.65192,0.68038 -1.2275,1.19486 -1.27907,1.14328 -0.0516,-0.0516 0.11541,-0.71163 0.37106,-1.46681 0.97901,-2.89192 3.03665,-4.77036 4.41651,-4.03188 0.86465,0.46275 1.25781,1.85755 1.09507,3.88496 -0.19479,2.4267 -1.5573,5.06125 -3.8917,7.52502 -1.00999,1.06595 -1.84134,1.83913 -1.84745,1.71816 z m 365.98807,-0.44822 c 0.067,-0.22196 0.79129,-1.33653 1.60941,-2.47682 1.73006,-2.41133 2.47441,-4.5127 2.11439,-5.96912 -0.1973,-0.79822 -0.35684,-0.95218 -1.0573,-1.02037 -0.69795,-0.0679 -0.9992,0.11535 -1.95683,1.19063 l -1.13186,1.27093 0.17086,-0.92605 c 0.28215,-1.52924 1.56639,-3.77514 2.52998,-4.42449 1.15297,-0.77699 1.74066,-0.76024 2.57429,0.0734 0.63449,0.63449 0.67029,0.80996 0.5833,2.85863 -0.08,1.88396 -0.22837,2.45702 -1.08395,4.18761 -0.64368,1.302 -1.60181,2.64208 -2.73272,3.8221 -0.95785,0.99942 -1.68664,1.63552 -1.61957,1.41355 z M 4.0972378,-44.13596 c -1.22163,-1.1621 -1.29898,-1.49558 -1.48155,-6.38677 -0.10127,-2.71321 -0.0602,-3.05964 0.45248,-3.81606 0.31012,-0.45758 0.70829,-0.87936 0.88483,-0.9373 0.51946,-0.17048 0.68229,1.12366 0.36827,2.92691 -0.41022,2.35567 -0.36449,3.60625 0.17106,4.67796 0.89531,1.79162 2.79256,1.9599 4.45196,0.39489 0.79256,-0.74748 0.90545,-1.0163 0.90545,-2.15618 0,-0.71622 -0.1786,-1.98789 -0.39688,-2.82593 -0.48154,-1.84875 -0.48613,-2.49357 -0.0237,-3.32823 0.34449,-0.62177 0.36232,-0.62498 0.6355852,-0.11439 0.15463,0.28893 0.47203,1.64836 0.70533,3.02097 0.56197,3.30632 0.83944,4.1044 1.64804,4.74045 0.7646,0.60144 2.68442,0.73093 3.19954,0.21581 0.49943,-0.49943 0.3861,-1.07064 -0.64198,-3.23548 -1.01036,-2.12753 -1.09461,-3.22259 -0.38596,-5.01653 0.36664,-0.92816 0.52237,-0.80718 0.85254,0.66229 0.13962,0.6214 0.61838,1.96036 1.06391,2.97547 0.6624,1.50921 0.78892,2.10067 0.69405,3.24464 -0.23558,2.84081 -2.60971,5.27523 -4.50144,4.61577 -0.4704,-0.16398 -1.23425,-0.66547 -1.69746,-1.11442 l -0.84218,-0.81628 -0.3956652,0.75779 c -0.75125,1.43884 -1.89866,2.27802 -3.29869,2.41254 -1.21223,0.11648 -1.36017,0.0604 -2.36754,-0.89792 z m -34.3324428,-0.51786 c -0.917956,-0.9905 -1.282155,-2.32901 -1.101638,-4.0488 0.137377,-1.3088 2.521136,-8.80979 2.929443,-9.2181 0.376354,-0.37635 0.09766,1.33089 -0.636611,3.8998 -1.277967,4.47109 -0.988187,7.14375 0.774546,7.14375 0.637863,0 1.512483,-1.08535 1.751479,-2.17349 0.150338,-0.68449 0.223636,-0.75019 0.428511,-0.3841 0.321453,0.5744 -0.15952,3.21493 -0.75129,4.12454 -0.99501,1.52945 -2.343631,1.79024 -3.39444,0.6564 z M 70.34658,-46.34926 c -0.74273,-0.88267 -1.11339,-2.64527 -0.84313,-4.00923 0.0964,-0.48637 0.73332,-2.55118 1.41545,-4.58847 1.44955,-4.32938 1.85406,-3.96948 0.59164,0.52641 -0.87246,3.10712 -0.97809,4.23175 -0.49668,5.28832 0.67942,1.49118 2.42031,0.9709 2.75703,-0.82397 0.28626,-1.52589 0.72788,-1.0415 0.53633,0.58828 -0.39974,3.40118 -2.37317,4.90526 -3.96064,3.01866 z m -124.72892,-9.84103 c 0.0582,-0.17451 1.28848,-0.96669 2.734017,-1.76042 10.07284,-5.53078 21.593897,-13.817781 24.749585,-17.802161 l 0.786763,-0.99337 -1.81347,-0.54007 c -1.040879,-0.30999 -2.069206,-0.81229 -2.413749,-1.17904 -1.141505,-1.21508 -0.982078,-3.96018 0.402722,-6.93422 0.762524,-1.63762 0.765548,-1.69426 0.09041,-1.69426 -0.718351,0 -0.898535,-0.57544 -0.52992,-1.69235 0.562263,-1.70368 1.220787,-2.27708 2.607947,-2.27082 2.696088,0.0122 6.986855,2.11117 8.912712,4.36004 2.195594,2.56385 2.884276,4.92504 2.392656,8.20339 -0.418415,2.79019 -2.709055,3.54227 -7.289676,2.3934 -0.600381,-0.15058 -0.771397,0.0214 -1.852083,1.86256 -3.334475,5.680921 -16.018747,14.577171 -25.042147,17.563591 -2.557247,0.84635 -3.915257,1.0222 -3.735767,0.48373 z m 36.653658,-23.186861 c 0.486487,-0.30879 -1.34579,-3.03738 -3.094201,-4.60783 -0.769557,-0.69122 -1.483066,-1.25677 -1.585579,-1.25677 -0.102513,0 -0.178933,0.68461 -0.169823,1.52136 0.0091,0.83674 -0.08143,2.01688 -0.201192,2.62253 l -0.217757,1.10118 1.408382,0.28528 c 2.341076,0.4742 2.447769,0.49273 2.995882,0.52033 0.291042,0.0147 0.679972,-0.0691 0.864288,-0.18608 z m -6.603346,-1.94183 c 0.118255,-1.02304 -0.421786,-2.80757 -1.035307,-3.42109 -0.713528,-0.71353 -1.423937,-0.47177 -2.81678,0.95859 -1.548252,1.58995 -1.494052,2.12599 0.264583,2.61673 3.043775,0.84936 3.473633,0.83088 3.587504,-0.15423 z M 139.3577,-60.49095 c -1.04023,-1.10298 -1.5785,-3.06984 -1.36898,-5.0024 0.16166,-1.49115 3.37021,-11.524671 3.68967,-11.538021 0.39418,-0.0165 0.18127,1.27653 -0.7421,4.50666 -1.21497,4.250341 -1.44661,7.153021 -0.669,8.383481 0.41103,0.65038 0.73205,0.8599 1.31754,0.8599 0.95695,0 2.04716,-1.1987 2.29585,-2.52425 0.27461,-1.46389 0.64198,-1.34277 0.64198,0.21165 0,4.63212 -2.90351,7.5008 -5.16496,5.10298 z M 9.5410778,-61.29641 c -0.097,-0.0973 -0.11351,-1.03019 -0.0367,-2.0731 0.29729,-4.03556 -1.09359,-7.635511 -4.22287,-10.929831 l -1.86377,-1.96206 0.33979,-1.90129 0.33978,-1.90129 1.64004,1.73109 c 1.95685,2.06548 3.02762,3.86244 4.00261,6.71718 0.6277852,1.838111 0.7212352,2.517091 0.7100952,5.159381 -0.0121,2.86287 -0.4906452,5.5795 -0.9089852,5.15992 z M -183.82526,-61.67582 c 0,-0.3395 1.07663,-1.06431 3.57188,-2.40466 3.64146,-1.95604 7.71728,-4.4615 9.98728,-6.13931 2.52114,-1.863421 6.13358,-5.363731 5.90959,-5.726151 -0.0839,-0.13574 -0.73272,-0.38599 -1.44183,-0.5561 -0.70911,-0.17012 -1.69174,-0.64583 -2.18363,-1.05715 -0.87292,-0.72996 -0.89373,-0.79444 -0.86923,-2.69386 0.0241,-1.87054 0.11937,-2.20899 1.59929,-5.68366 0.0698,-0.16394 -0.17779,-0.37457 -0.55027,-0.46806 -0.78205,-0.19628 -0.83665,-0.58913 -0.27028,-1.94465 0.65403,-1.5653 1.11396,-1.92025 2.47831,-1.91258 2.71646,0.0153 6.94767,2.08963 8.89091,4.35879 2.02011,2.35894 2.37902,3.32404 2.37902,6.39711 0,3.2084 -0.38035,3.96417 -2.2743,4.519 -1.11459,0.32653 -2.22563,0.2533 -5.26632,-0.34707 -0.58361,-0.11523 -0.77045,0.0648 -1.5875,1.52935 -1.14711,2.05622 -4.28945,5.248711 -6.74687,6.854561 -2.28907,1.49583 -6.85613,3.60664 -10.16604,4.69855 -2.5829,0.85208 -3.46001,0.99807 -3.46001,0.57589 z m 28.1234,-16.911261 c 0.42644,-0.16836 0.37047,-0.34713 -0.55337,-1.76734 -1.03067,-1.58444 -3.49097,-4.09358 -4.0139,-4.09358 -0.1755,0 -0.21868,0.37753 -0.11636,1.01736 0.0895,0.55955 0.021,1.70009 -0.15228,2.53453 -0.17323,0.83444 -0.25524,1.57688 -0.18225,1.64988 0.12513,0.12513 3.7099,0.82981 4.27914,0.84117 0.14552,0.003 0.47808,-0.079 0.73902,-0.18202 z m -6.56472,-1.87003 c 0.34228,-1.55838 -0.78723,-3.99089 -1.85313,-3.99089 -0.52625,0 -2.70322,2.01165 -2.92161,2.69974 -0.24349,0.76717 0.3156,1.19546 2.1345,1.63512 2.29379,0.55446 2.44731,0.53446 2.64024,-0.34397 z m 55.71483,14.964341 c 0.016,-4.72578 -0.3474,-6.701401 -1.74513,-9.486471 -1.16391,-2.31917 -2.68152,-4.30351 -5.14795,-6.73116 l -1.91808,-1.88794 0.47108,-2.68189 c 0.2591,-1.47504 0.56551,-2.64847 0.68092,-2.60764 0.1154,0.0408 0.8513,0.69324 1.63533,1.44978 3.63431,3.50689 6.13312,8.05509 7.21246,13.1277 0.67301,3.16296 0.48328,8.505201 -0.42138,11.864871 -0.53909,2.00204 -0.78112,1.04077 -0.76725,-3.04725 z m 173.24018,-2.74314 c -3.14886,-2.13843 -3.40146,-7.000811 -0.73225,-14.095421 0.46537,-1.23693 1.23938,-3.43958 1.72002,-4.89479 0.8672,-2.62555 1.38071,-3.23366 1.22884,-1.45521 -0.0435,0.50932 -0.60712,2.89057 -1.25249,5.29167 -0.64538,2.40109 -1.24762,5.02046 -1.33832,5.82083 -0.29685,2.61945 0.83228,5.02708 2.3576,5.02708 1.35423,0 3.07031,-2.24476 3.0846,-4.03489 0.009,-1.07403 0.44236,-0.88386 0.6277,0.27518 0.39219,2.45261 -0.95658,6.647991 -2.48779,7.738301 -1.10385,0.78602 -2.34581,0.91271 -3.20791,0.32725 z m -248.73742,-6.160771 c -1.04413,-0.82131 -1.61229,-2.60858 -1.4385,-4.52514 0.14576,-1.60744 2.78639,-9.75939 3.16135,-9.75947 0.25724,-5e-5 0.0248,1.17412 -0.88636,4.47762 -1.12741,4.08749 -0.96025,6.70644 0.45067,7.06056 0.94089,0.23614 1.61953,-0.31913 2.21705,-1.81405 l 0.55551,-1.3898 -0.10022,1.85209 c -0.11704,2.16277 -0.85235,3.84045 -1.89054,4.31348 -0.95522,0.43524 -1.28567,0.40085 -2.06896,-0.21529 z m 131.044557,-1.7164 c 0,-0.0967 0.70989,-1.15291 1.57752,-2.34709 1.80223,-2.48054 2.59803,-4.11871 2.80076,-5.76541 0.29582,-2.40293 -1.16433,-3.31861 -2.88408,-1.80866 -0.51684,0.4538 -1.01296,1.05588 -1.10249,1.33795 -0.25771,0.81197 -0.73964,0.61825 -0.53423,-0.21473 0.88097,-3.57247 3.47629,-6.26405 5.16736,-5.35901 1.80255,0.96469 1.67448,5.05929 -0.27246,8.7109 -1.20669,2.26323 -4.75238,6.32645 -4.75238,5.44605 z m -33.009167,-1.5219 c -1.66299,-1.77526 -1.54514,-3.58665 0.64117,-9.85515 1.2066,-3.45952 1.56139,-2.88793 0.51259,0.82583 -1.21563,4.30449 -1.21896,5.82517 -0.0145,6.61436 0.5964,0.39077 0.70195,0.39067 1.30016,-10e-4 0.37309,-0.24445 0.79468,-0.90701 0.98742,-1.55178 l 0.33633,-1.12519 0.0854,1.10872 c 0.25741,3.34339 -2.13186,5.81708 -3.84853,3.98451 z m 77.7685878,-2.85374 c 0.48719,-1.44266 0.65809,-1.65624 1.76859,-2.21036 1.48619,-0.74157 20.4754552,-8.09892 20.9032752,-8.09892 0.4045,0 0.38465,0.17826 -0.18768,1.68523 l -0.48929,1.28836 -10.0758352,3.90041 c -5.54169948,2.14523 -10.50744,4.15508 -11.03498,4.46633 -0.52754,0.31126 -1.06361,0.56592 -1.19128,0.56592 -0.12765,0 0.0106,-0.71864 0.3072,-1.59697 z m 134.4386522,0.90396 c 0.27929,-1.37242 0.97133,-2.72162 1.55667,-3.03487 1.14983,-0.61537 21.48409,-8.43399 21.60924,-8.30885 0.0708,0.0708 -0.0895,0.77092 -0.35624,1.55572 l -0.48501,1.42691 -10.07543,3.89397 c -5.54146,2.14169 -10.59942,4.19442 -11.23987,4.56164 l -1.16449,0.66767 z M 20.920684,54.62964 c 0.09213,0.25392 0.594264,1.95751 1.115925,3.78575 1.12486,3.94238 3.348224,8.66976 5.017205,10.66784 l 1.198035,1.4343 0.665192,-0.82144 c 0.554633,-0.68494 0.897461,-0.78218 2.063319,-0.5852 1.810069,0.30581 4.07291,1.59737 5.007867,2.85836 0.707949,0.95482 0.713309,1.06233 0.128147,2.5854 -0.335807,0.87402 -0.953453,2.14978 -1.372541,2.83502 -0.716199,1.17095 -0.859352,1.23492 -2.380113,1.06351 -3.593657,-0.40506 -6.99977,-3.6627 -9.751985,-9.32688 -0.789611,-1.62511 -1.73325,-3.95195 -2.096906,-5.17079 -0.363683,-1.21882 -0.769007,-2.3465 -0.900714,-2.50594 -0.131776,-0.15944 -0.525933,1.7519 -0.876006,4.24743 -0.964745,6.87718 -1.640086,9.84841 -2.817963,12.39787 -1.236367,2.67605 -2.640386,3.60133 -4.487573,2.9574 -1.251248,-0.4362 -4.3681971,-3.80189 -4.3681971,-4.71681 0,-0.35849 0.3428141,-1.42683 0.7618742,-2.3741 l 0.7618323,-1.72232 1.1291172,0.95009 c 4.4890994,3.77732 5.9407204,2.28043 7.1635744,-7.3869 0.946403,-7.48183 2.212978,-11.63427 3.548736,-11.63427 0.178023,0 0.399042,0.20776 0.49116,0.46168 z" /></g></svg>
